<svg width="20" height="20" viewBox="0 0 20 20" fill="none" xmlns="http://www.w3.org/2000/svg">
<g id="Frame 1410105940">
<path id="Vector" d="M9.86349 1.00882C10.0655 0.978281 10.3659 1.03179 10.5579 1.09662C11.4726 1.40569 11.6907 2.28456 12.047 3.10139L12.8159 4.88284C13.0698 5.47244 13.2379 6.02861 13.9524 6.14023C15.2666 6.34549 16.725 6.18457 17.9968 6.56599C18.4054 6.74171 18.7403 7.08898 18.8808 7.49006C19.3419 8.80728 18.378 9.42226 17.4872 10.1257C17.0553 10.4431 16.5168 10.9305 16.0988 11.236C14.9297 12.0863 15.1868 12.3887 15.5174 13.5563C15.7038 14.2147 16.2205 15.6542 16.2481 16.2711C16.2603 16.5385 16.2091 16.8049 16.0988 17.0486C15.8204 17.6518 15.0089 18.1297 14.3372 17.9683C13.801 17.8394 13.2227 17.4383 12.7269 17.1827C11.8916 16.7523 11.08 16.2321 10.2272 15.8373C9.05164 15.8305 6.82898 17.7117 5.59057 17.9731C5.18013 18.0597 4.74823 17.903 4.42519 17.6816C4.01171 17.3932 3.75838 16.926 3.74181 16.4213C3.71662 15.8117 4.36101 14.0476 4.54748 13.3606C4.64531 13.0238 4.81972 12.5563 4.73702 12.2043C4.62116 11.7111 3.91168 11.2566 3.52812 10.9526C3.05354 10.5766 2.58183 10.1971 2.11304 9.81394C1.86254 9.60972 1.55519 9.37605 1.35925 9.12334C1.19291 8.90858 1.07979 8.65733 1.02913 8.39023C0.877176 7.56611 1.33061 6.75616 2.13341 6.51126C2.42953 6.42089 2.72477 6.4004 3.03112 6.37123C3.69792 6.30771 4.36686 6.28682 5.03451 6.23017C5.35034 6.20314 5.70737 6.20308 6.01689 6.15C6.20443 6.11274 6.5738 5.98081 6.68769 5.80838C7.24807 4.95485 7.55819 3.90058 7.99616 2.9704C8.51198 1.87496 8.54311 1.26383 9.86349 1.00882Z" fill="#333333"/>
</g>
</svg>
